<svg width="201" height="266" viewBox="0 0 201 266" fill="none" xmlns="http://www.w3.org/2000/svg">
<path d="M0.402344 85.9023C25.2552 85.9023 45.4023 65.7551 45.4023 40.9023C45.4023 23.4877 35.5101 8.38346 21.0384 0.902328L0.402344 0.902328L0.402344 85.9023Z" fill="#2B312F"/>
<path d="M0.402344 40.9023H45.4023V0.902328L0.402344 0.902328L0.402344 40.9023Z" fill="#2B312F"/>
<path d="M0.402344 225.902H45.4023C20.5495 225.902 0.402344 205.755 0.402344 180.902L0.402344 225.902Z" fill="#2B312F"/>
<path d="M0.402344 265.902H45.4023V225.902H0.402344L0.402344 265.902Z" fill="#2B312F"/>
<path d="M155.402 225.902H200.402L200.402 265.902H155.402L155.402 225.902Z" fill="#2B312F"/>
<path d="M200.402 180.902C200.402 205.755 180.255 225.902 155.402 225.902H200.402V180.902Z" fill="#2B312F"/>
<path d="M155.402 0.902328L200.402 0.902328V40.9023L155.402 40.9023V0.902328Z" fill="#2B312F"/>
<path d="M179.766 0.902328C165.295 8.38346 155.402 23.4877 155.402 40.9023C155.402 65.7551 175.55 85.9023 200.402 85.9023V0.902328L179.766 0.902328Z" fill="#2B312F"/>
<path d="M55.4023 0.902328L145.402 0.902328V40.9023L55.4023 40.9023V0.902328Z" fill="#2B312F"/>
<path d="M79.7663 0.902328C65.2945 8.38346 55.4023 23.4877 55.4023 40.9023C55.4023 65.7551 75.5495 85.9023 100.402 85.9023C125.255 85.9023 145.402 65.7551 145.402 40.9023C145.402 23.4877 135.51 8.38346 121.038 0.902328L79.7663 0.902328Z" fill="#2B312F"/>
<path d="M195.402 170.902C195.402 195.755 175.255 215.902 150.402 215.902C125.55 215.902 105.402 195.755 105.402 170.902C105.402 146.05 125.55 125.902 150.402 125.902C175.255 125.902 195.402 146.05 195.402 170.902Z" fill="#2B312F"/>
<path d="M105.402 95.9023L195.402 95.9023V170.902H105.402L105.402 95.9023Z" fill="#2B312F"/>
<path d="M105.402 95.9023C130.255 95.9023 150.402 75.7551 150.402 50.9023C150.402 75.7551 170.55 95.9023 195.402 95.9023L105.402 95.9023Z" fill="#2B312F"/>
<path d="M55.4023 225.902H145.402L145.402 265.902H55.4023V225.902Z" fill="#2B312F"/>
<path d="M55.4023 225.902C80.2552 225.902 100.402 205.755 100.402 180.902C100.402 205.755 120.55 225.902 145.402 225.902H55.4023Z" fill="#2B312F"/>
<path d="M95.4023 170.902C95.4023 195.755 75.2552 215.902 50.4023 215.902C25.5495 215.902 5.40234 195.755 5.40234 170.902C5.40234 146.05 25.5495 125.902 50.4023 125.902C75.2552 125.902 95.4023 146.05 95.4023 170.902Z" fill="#2B312F"/>
<path d="M5.40234 95.9023H95.4023L95.4023 170.902H5.40234L5.40234 95.9023Z" fill="#2B312F"/>
<path d="M5.40234 95.9023C30.2552 95.9023 50.4023 75.7551 50.4023 50.9023C50.4023 75.7551 70.5495 95.9023 95.4023 95.9023H5.40234Z" fill="#2B312F"/>
</svg>
